<svg xmlns="http://www.w3.org/2000/svg" xmlns:osb="http://www.openswatchbook.org/uri/2009/osb" version="1.1" viewBox="0 0 16 16"><g fill="gray"><path d="m4.5 4c-0.277 0-0.5 0.223-0.5 0.5v7c0 0.277 0.223 0.5 0.5 0.5h7c0.277 0 0.5-0.223 0.5-0.5v-7c0-0.277-0.223-0.5-0.5-0.5zm0.5 1h6v6h-6z"/><rect width="2" height="3" x="4" rx=".5" ry=".5"/><rect width="2" height="3" x="7" rx=".5" ry=".5"/><rect width="2" height="3" x="10" rx=".5" ry=".5"/><rect width="2" height="3" x="4" y="13" rx=".5" ry=".5"/><rect width="2" height="3" x="7" y="13" rx=".5" ry=".5"/><rect width="2" height="3" x="10" y="13" rx=".5" ry=".5"/><rect width="2" height="3" x="-6" y="13" rx=".5" ry=".5" transform="rotate(-90)"/><rect width="2" height="3" x="-9" y="13" rx=".5" ry=".5" transform="rotate(-90)"/><rect width="2" height="3" x="-12" y="13" rx=".5" ry=".5" transform="rotate(-90)"/><rect width="2" height="3" x="-6" y="0" rx=".5" ry=".5" transform="rotate(-90)"/><rect width="2" height="3" x="-9" y="0" rx=".5" ry=".5" transform="rotate(-90)"/><rect width="2" height="3" x="-12" y="0" rx=".5" ry=".5" transform="rotate(-90)"/><path d="m4 2c-1.108 0-2 0.892-2 2v8c0 1.108 0.892 2 2 2h8c1.108 0 2-0.892 2-2v-8c0-1.108-0.892-2-2-2zm0.5 1h7c0.831 0 1.5 0.669 1.5 1.5v7c0 0.831-0.669 1.5-1.5 1.5h-7c-0.831 0-1.5-0.669-1.5-1.5v-7c0-0.831 0.669-1.5 1.5-1.5z"/></g></svg>