<svg xmlns="http://www.w3.org/2000/svg" xmlns:svg="http://www.w3.org/2000/svg" id="svg24" width="64" height="64" version="1.1"><metadata id="metadata30"/><path style="fill:#ccc;stroke-width:1.29545" id="path4" d="M 8.681819,9.977273 C 5.8200985,9.977559 3.5002862,12.29737 3.5,15.159091 V 48.84091 c 2.862e-4,2.86172 2.3200985,5.181531 5.181819,5.181817 h 2.59091 c 2.360983,-0.0025 4.421874,-1.600394 5.012296,-3.886364 h 0.169522 31.090909 0.172051 c 0.590185,2.285058 2.649723,3.882761 5.009765,3.886364 h 2.590911 C 58.179904,54.022441 60.499715,51.70263 60.5,48.84091 V 15.159091 C 60.499715,12.29737 58.179904,9.977559 55.318183,9.977273 h -2.590911 c -2.360983,0.0023 -4.421874,1.600395 -5.012296,3.886364 H 47.545456 16.454547 16.282494 C 15.69231,11.578578 13.632771,9.980877 11.272729,9.977273 Z m 0,6.477273 h 2.59091 v 33.681817 h -2.59091 z m 44.045453,0 h 2.590911 v 33.681817 h -2.590911 z m -38.863635,3.886363 h 2.59091 V 46.25 h -2.59091 z m 5.181818,0 H 44.954546 V 46.25 H 19.045455 Z m 28.500001,0 h 2.590908 V 46.25 h -2.590908 z m -25.909093,2.59091 V 43.65909 H 42.363638 V 22.931819 Z"/></svg>