<svg xmlns="http://www.w3.org/2000/svg" xmlns:svg="http://www.w3.org/2000/svg" id="svg24" width="64" height="64" version="1.1"><metadata id="metadata30"/><g id="g840" transform="matrix(1.425,0,0,1.425,-2.2,-2.2)" style="fill:#ccc"><path id="rect2" d="M 8,18 V 30 H 40 V 18 Z m 6,2 a 4,4 0 0 1 4,4 4,4 0 0 1 -4,4 4,4 0 0 1 -4,-4 4,4 0 0 1 4,-4 z m 10,0 a 4,4 0 0 1 4,4 4,4 0 0 1 -4,4 4,4 0 0 1 -4,-4 4,4 0 0 1 4,-4 z m 10,0 a 4,4 0 0 1 4,4 4,4 0 0 1 -4,4 4,4 0 0 1 -4,-4 4,4 0 0 1 4,-4 z" style="fill:#ccc"/><path id="path4" d="M 24,4 C 14.651,4 6.863,10.36 4.65,19 h 38.7 C 41.137,10.36 33.349,4 24,4 Z M 4.65,29 C 6.8624,37.64 14.651,44 24,44 33.349,44 41.137,37.64 43.35,29 Z" style="fill:#ccc"/></g></svg>