<svg xmlns="http://www.w3.org/2000/svg" xmlns:svg="http://www.w3.org/2000/svg" id="svg24" width="64" height="64" version="1.1"><metadata id="metadata30"/><path style="fill:#ccc;stroke-width:1.425" id="rect4" d="M 32,3.5 C 16.211,3.5 3.5,16.211 3.5,32 3.5,47.788999 16.211,60.5 32,60.5 47.788999,60.5 60.5,47.788999 60.5,32 60.5,16.211 47.788999,3.5 32,3.5 Z M 13.475,18.111816 32,28.807666 50.525,18.111816 V 24.875 25.373193 40.101905 l -5.7,3.298094 v -8.452587 l 1.424999,-0.751465 v -6.354053 l -14.230517,8.216015 -0.01948,-0.01111 -0.01948,0.01111 -14.230517,-8.216015 v 6.354053 l 1.424999,0.751465 v 8.452587 L 13.47501,40.101905 V 25.373193 24.875 Z M 22.025,36.275 32,42.033447 41.975,36.275 v 6.554442 L 37.677734,45.31206 36.592284,45.938281 32,48.590674 26.325049,45.31206 22.025,42.829442 Z"/></svg>